<svg width="374" height="331" viewBox="0 0 374 331" fill="none" xmlns="http://www.w3.org/2000/svg">
<path d="M294.498 31.9162V151.465H230.989V0H262.582C266.773 0 270.923 0.825605 274.796 2.42955C278.668 4.0335 282.186 6.38442 285.15 9.3481C288.114 12.3118 290.465 15.8302 292.068 19.7024C293.673 23.5747 294.498 27.7251 294.498 31.9162Z" fill="url(#paint0_linear_646_186)"/>
<path d="M230.99 4.75727e-06V63.5089H79.5V31.9162C79.501 27.7231 80.328 23.5713 81.9339 19.6979C83.5397 15.8244 85.8929 12.3053 88.8591 9.3415C91.8252 6.37767 95.3461 4.0272 99.2208 2.42439C103.096 0.82156 107.248 -0.00228436 111.441 4.75727e-06H230.99Z" fill="url(#paint1_linear_646_186)"/>
<path d="M143.009 63.5089V214.974H111.441C107.248 214.977 103.095 214.153 99.2204 212.551C95.3456 210.948 91.8245 208.597 88.8583 205.634C85.8921 202.67 83.5389 199.15 81.9332 195.277C80.3275 191.403 79.5007 187.251 79.5 183.058V63.5089H143.009Z" fill="url(#paint2_linear_646_186)"/>
<path d="M294.498 151.465V183.068C294.498 187.259 293.673 191.41 292.069 195.282C290.465 199.154 288.114 202.672 285.15 205.636C282.187 208.6 278.668 210.951 274.796 212.555C270.924 214.159 266.773 214.984 262.582 214.984H143.008V151.475L294.498 151.465Z" fill="url(#paint3_linear_646_186)"/>
<g style="mix-blend-mode:multiply" opacity="0.3">
<g style="mix-blend-mode:multiply" opacity="0.3">
<path d="M294.498 149.773V151.466H230.989V149.076L246.449 148.976L262.457 149.076L278.49 149.324L294.498 149.773Z" fill="black"/>
</g>
</g>
<g style="mix-blend-mode:multiply" opacity="0.3">
<g style="mix-blend-mode:multiply" opacity="0.3">
<path d="M145.498 165.681L145.398 182.112L145.1 198.543L144.601 214.974H143.008V151.465H145.423L145.498 165.681Z" fill="black"/>
</g>
</g>
<g style="mix-blend-mode:multiply" opacity="0.3">
<g style="mix-blend-mode:multiply" opacity="0.3">
<path d="M143.009 63.5089V65.9238L128.171 65.9736L111.964 65.874C101.134 65.7246 90.3296 65.5006 79.5 65.0773V63.5089H143.009Z" fill="black"/>
</g>
</g>
<g style="mix-blend-mode:multiply" opacity="0.3">
<g style="mix-blend-mode:multiply" opacity="0.3">
<path d="M230.99 0V63.5089H229.048L228.998 49.9905L229.073 33.3353C229.247 22.207 229.471 11.1035 229.894 0H230.99Z" fill="black"/>
</g>
</g>
<g style="mix-blend-mode:screen" opacity="0.4">
<g style="mix-blend-mode:screen" opacity="0.4">
<path d="M294.5 151.465V183.068C294.077 177.815 293.753 172.537 293.504 167.284C293.23 162.579 293.056 157.899 292.882 153.218L278.492 153.616L262.459 153.865L246.451 153.965L230.443 153.865L214.436 153.616L198.403 153.193C187.747 152.77 177.067 152.322 166.387 151.475L294.5 151.465Z" fill="white"/>
</g>
</g>
<g style="mix-blend-mode:overlay" opacity="0.6">
<g style="mix-blend-mode:overlay" opacity="0.6">
<path d="M143.008 83.5002V214.974H113.457C122.768 214.252 132.054 213.804 141.365 213.456L140.917 198.543L140.618 182.112L140.518 165.681L140.593 149.25C140.618 143.773 140.767 138.296 140.842 132.819C140.917 127.342 141.141 121.865 141.29 116.363C141.688 105.409 142.161 94.4543 143.008 83.5002Z" fill="white"/>
</g>
</g>
<g style="mix-blend-mode:screen" opacity="0.4">
<g style="mix-blend-mode:screen" opacity="0.4">
<path d="M209.306 63.5088H79.5V35.4514C80.1971 44.2645 80.6452 53.0776 80.9938 61.8906C91.3006 61.5172 101.632 61.2931 111.964 61.1437L128.171 61.0442L144.403 61.094C155.233 61.1935 166.054 61.4176 176.867 61.7661C187.672 62.1894 198.501 62.6375 209.306 63.5088Z" fill="white"/>
</g>
</g>
<g style="mix-blend-mode:overlay" opacity="0.6">
<g style="mix-blend-mode:overlay" opacity="0.6">
<path d="M246.098 0.896284C241.767 1.17014 237.435 1.34441 233.078 1.51868C233.476 12.1242 233.675 22.7298 233.85 33.3353L233.924 49.9905L233.875 66.6457C233.775 77.7492 233.551 88.8609 233.202 99.981C232.978 105.533 232.829 111.084 232.48 116.636C232.132 122.188 231.908 127.74 231.46 133.291C231.261 130.926 231.111 128.561 230.987 126.196V0H260.762C255.885 0.398331 250.98 0.622432 246.098 0.896284Z" fill="white"/>
</g>
</g>
<path d="M49.7188 302.584C49.7188 302.584 45.2388 308.984 36.9188 308.984C28.9188 308.984 22.5188 302.584 22.5188 294.584C22.5188 286.584 28.9188 280.184 36.9188 280.184C44.9188 280.184 49.3988 286.584 49.3988 286.584L55.7988 280.184C55.7988 280.184 49.3988 271.224 36.9188 271.224C23.1588 271.224 12.5988 281.784 12.5988 294.584C12.5988 307.384 23.1588 317.944 36.9188 317.944C49.7188 317.944 56.1188 308.984 56.1188 308.984L49.7188 302.584ZM75.6613 309.624C71.1813 309.624 67.6613 306.104 67.6613 301.304C67.6613 296.504 71.1813 292.984 75.6613 292.984C80.1413 292.984 83.6613 296.504 83.6613 301.304C83.6613 306.104 80.1413 309.624 75.6613 309.624ZM59.0213 301.304C59.0213 310.264 66.3813 317.624 75.6613 317.624C84.9413 317.624 92.3013 310.264 92.3013 301.304C92.3013 292.344 84.9413 284.984 75.6613 284.984C66.3813 284.984 59.0213 292.344 59.0213 301.304ZM121.091 316.984H129.731V272.184H121.091V290.104H120.771C120.771 290.104 117.571 284.984 110.851 284.984C103.491 284.984 96.7713 291.704 96.7713 301.304C96.7713 310.904 103.491 317.624 110.851 317.624C117.571 317.624 120.771 312.504 120.771 312.504H121.091V316.984ZM113.411 309.624C108.931 309.624 105.411 306.104 105.411 301.304C105.411 296.504 108.931 292.984 113.411 292.984C117.891 292.984 121.411 296.504 121.411 301.304C121.411 306.104 117.891 309.624 113.411 309.624ZM138.379 316.984H147.019V285.624H138.379V316.984ZM137.739 276.664C137.739 279.224 139.979 281.464 142.667 281.464C145.419 281.464 147.659 279.224 147.659 276.664C147.659 274.104 145.419 271.864 142.731 271.864C139.979 271.864 137.739 274.104 137.739 276.664ZM155.316 316.984H163.956V300.344C163.956 296.184 166.836 293.304 170.676 293.304C174.196 293.304 176.436 295.544 176.436 299.384V316.984H185.076V298.104C185.076 290.104 179.956 284.984 173.556 284.984C167.476 284.984 164.276 290.104 164.276 290.104H163.956V285.624H155.316V316.984ZM207.459 308.344C203.299 308.344 200.099 305.144 200.099 300.664C200.099 296.184 203.299 292.984 207.459 292.984C211.619 292.984 214.819 296.184 214.819 300.664C214.819 305.144 211.619 308.344 207.459 308.344ZM192.739 324.024C192.739 324.024 197.219 330.424 206.499 330.424C216.419 330.424 223.459 323.384 223.459 313.784V285.624H214.819V290.104H214.499C214.499 290.104 211.619 284.984 204.899 284.984C197.859 284.984 191.459 291.384 191.459 300.664C191.459 309.944 197.859 316.344 204.899 316.344C211.619 316.344 214.499 311.224 214.499 311.224H214.819V313.784C214.819 318.904 211.299 322.424 206.499 322.424C201.379 322.424 198.179 318.584 198.179 318.584L192.739 324.024ZM253.174 316.984H262.774V281.144H275.574V272.184H240.374V281.144H253.174V316.984ZM300.871 306.424C300.871 306.424 297.991 309.944 292.551 309.944C287.751 309.944 285.191 307.384 284.231 304.504H306.951C306.951 304.504 307.271 302.904 307.271 300.664C307.271 292.024 300.231 284.984 291.591 284.984C282.631 284.984 275.271 292.344 275.271 301.304C275.271 310.264 282.631 317.624 291.911 317.624C300.551 317.624 305.351 312.504 305.351 312.504L300.871 306.424ZM284.231 298.104C285.191 295.224 287.751 292.664 291.271 292.664C294.791 292.664 297.351 295.224 298.311 298.104H284.231ZM310.491 311.864C310.491 311.864 315.291 317.624 323.931 317.624C332.571 317.624 337.051 313.144 337.051 307.704C337.051 297.464 321.051 298.104 321.051 294.584C321.051 293.624 322.011 292.664 324.251 292.664C328.731 292.664 331.291 295.224 331.291 295.224L336.411 289.784C336.411 289.784 332.251 284.984 324.251 284.984C316.251 284.984 311.771 289.464 311.771 294.584C311.771 304.824 327.771 304.184 327.771 307.704C327.771 308.984 326.811 309.944 323.931 309.944C318.811 309.944 315.611 306.424 315.611 306.424L310.491 311.864ZM345.376 306.104C345.376 313.464 349.536 317.624 355.936 317.624C359.136 317.624 361.696 316.664 361.696 316.664V308.664C361.696 308.664 360.096 309.304 358.176 309.304C355.616 309.304 354.016 307.704 354.016 304.824V294.264H361.056V286.264H354.016V276.664H346.336V282.424C346.336 284.984 345.056 286.264 342.816 286.264H339.936V294.264H345.376V306.104Z" fill="black"/>
<defs>
<linearGradient id="paint0_linear_646_186" x1="262.744" y1="-2.57491" x2="262.744" y2="150.86" gradientUnits="userSpaceOnUse">
<stop stop-color="#FD00D5"/>
<stop offset="1" stop-color="#A53826"/>
<stop offset="1" stop-color="#FCC201"/>
</linearGradient>
<linearGradient id="paint1_linear_646_186" x1="230.081" y1="31.7544" x2="83.4387" y2="31.7544" gradientUnits="userSpaceOnUse">
<stop stop-color="#F80300"/>
<stop offset="0.033" stop-color="#F81000"/>
<stop offset="0.158" stop-color="#F93F00"/>
<stop offset="0.288" stop-color="#FA6800"/>
<stop offset="0.419" stop-color="#FA8900"/>
<stop offset="0.554" stop-color="#FBA300"/>
<stop offset="0.693" stop-color="#FBB500"/>
<stop offset="0.838" stop-color="#FBC000"/>
<stop offset="1" stop-color="#FCC400"/>
</linearGradient>
<linearGradient id="paint2_linear_646_186" x1="111.254" y1="208.461" x2="111.254" y2="66.3868" gradientUnits="userSpaceOnUse">
<stop stop-color="#4333F5"/>
<stop offset="1" stop-color="#FF00F5"/>
</linearGradient>
<linearGradient id="paint3_linear_646_186" x1="143.008" y1="183.225" x2="294.498" y2="183.225" gradientUnits="userSpaceOnUse">
<stop stop-color="#F80300"/>
<stop offset="0.033" stop-color="#F81000"/>
<stop offset="0.158" stop-color="#F93F00"/>
<stop offset="0.288" stop-color="#FA6800"/>
<stop offset="0.419" stop-color="#FA8900"/>
<stop offset="0.554" stop-color="#FBA300"/>
<stop offset="0.693" stop-color="#FBB500"/>
<stop offset="0.838" stop-color="#FBC000"/>
<stop offset="1" stop-color="#FCC400"/>
</linearGradient>
</defs>
</svg>
